<svg width="183" height="72" viewBox="0 0 183 72" fill="none" xmlns="http://www.w3.org/2000/svg">
<path d="M22.016 42.728C23.3387 43.5813 24.4267 44.712 25.28 46.12C26.176 47.4853 26.4107 49.0853 25.984 50.92C25.6 52.6267 24.3413 54.12 22.208 55.4C20.1173 56.6373 17.4293 57.256 14.144 57.256C12.6933 57.256 11.2427 57.0427 9.792 56.616C8.34133 56.1467 7.06133 55.5493 5.952 54.824C4.84267 54.0987 3.94667 53.48 3.264 52.968C2.624 52.456 2.06933 51.944 1.6 51.432C1.344 51.176 1.32267 50.8987 1.536 50.6L5.44 45.544C5.48267 45.4587 5.568 45.416 5.696 45.416C5.824 45.416 5.90933 45.48 5.952 45.608C6.29333 46.4613 6.72 47.3573 7.232 48.296C7.744 49.192 8.448 50.3227 9.344 51.688C10.24 53.0533 11.264 54.184 12.416 55.08C13.6107 55.9333 14.8053 56.36 16 56.36C17.408 56.36 18.368 55.9333 18.88 55.08C19.4347 54.184 19.456 53.1387 18.944 51.944C18.4747 50.7067 17.5787 49.64 16.256 48.744C15.232 48.0187 13.5467 46.8667 11.2 45.288C8.896 43.6667 7.33867 42.6 6.528 42.088C5.16267 41.1493 4.032 39.8053 3.136 38.056C2.24 36.3067 2.19733 34.4293 3.008 32.424C3.776 30.632 5.056 29.2667 6.848 28.328C8.64 27.3467 10.432 26.856 12.224 26.856C14.1867 26.856 16 27.0267 17.664 27.368C19.328 27.7093 20.6293 28.136 21.568 28.648C22.5067 29.1173 23.296 29.608 23.936 30.12C24.6187 30.5893 25.0667 30.9947 25.28 31.336L25.664 31.848C24.4267 33.4693 23.3813 34.5787 22.528 35.176C21.7173 35.688 20.8213 35.8587 19.84 35.688C18.8587 35.5173 18.112 35.0267 17.6 34.216C16.0213 31.6987 14.592 29.928 13.312 28.904C12.0747 27.88 10.8373 27.752 9.6 28.52C8.96 28.904 8.576 29.5227 8.448 30.376C8.32 31.1867 8.53333 32.1253 9.088 33.192C9.64267 34.216 10.5387 35.1333 11.776 35.944C12.6293 36.5413 14.3573 37.6933 16.96 39.4C19.6053 41.1067 21.2907 42.216 22.016 42.728ZM43.0445 53.928C43.3858 53.8 43.6418 53.8853 43.8125 54.184C43.9832 54.44 43.8978 54.7173 43.5565 55.016C41.6365 56.5093 39.8018 57.256 38.0525 57.256C33.5298 57.256 31.2685 54.76 31.2685 49.768V28.776H29.9885C29.4338 28.776 29.1565 28.5627 29.1565 28.136C29.1565 27.7093 29.4125 27.496 29.9245 27.496H31.3325V26.408C31.3325 25.7253 31.6312 25.256 32.2285 25C35.4712 23.5493 37.5618 22.6533 38.5005 22.312C38.9272 22.1413 39.2472 22.12 39.4605 22.248C39.6738 22.376 39.7805 22.5893 39.7805 22.888V27.496H42.2765C42.7885 27.496 43.0445 27.7093 43.0445 28.136C43.0445 28.5627 42.8098 28.776 42.3405 28.776H39.7805V48.744C39.7805 49.7253 39.8658 50.6427 40.0365 51.496C40.2498 52.3493 40.6125 53.0533 41.1245 53.608C41.6365 54.1627 42.2765 54.2693 43.0445 53.928ZM64.364 28.008C68.1613 29.5867 70.9347 32.3387 72.684 36.264C74.476 40.1467 74.7107 44.0507 73.388 47.976C72.108 51.8587 69.6547 54.632 66.028 56.296C62.444 57.9173 58.7533 57.9387 54.956 56.36C51.1587 54.7387 48.364 51.9867 46.572 48.104C44.8227 44.1787 44.588 40.2747 45.868 36.392C47.1907 32.4667 49.644 29.6933 53.228 28.072C56.8547 26.408 60.5667 26.3867 64.364 28.008ZM60.524 53.032C62.6147 55.208 64.3213 55.9973 65.644 55.4C66.9667 54.8027 67.5 53.0107 67.244 50.024C66.988 46.9947 66.028 43.6667 64.364 40.04C62.7427 36.3707 60.8653 33.448 58.732 31.272C56.6413 29.096 54.9347 28.3067 53.612 28.904C52.332 29.5013 51.7987 31.3147 52.012 34.344C52.268 37.3307 53.228 40.6587 54.892 44.328C56.556 47.9547 58.4333 50.856 60.524 53.032ZM103.781 50.792C103.866 50.7493 103.973 50.7493 104.101 50.792C104.229 50.792 104.314 50.856 104.357 50.984C104.399 51.0693 104.399 51.176 104.357 51.304C103.205 53.0107 101.562 54.4827 99.4285 55.72C97.2952 56.9147 94.7352 57.4267 91.7485 57.256C87.3965 57.0427 83.9192 55.592 81.3165 52.904C78.7565 50.1733 77.4765 46.568 77.4765 42.088C77.4765 37.6933 78.8418 34.0667 81.5725 31.208C84.3458 28.3067 87.8872 26.856 92.1965 26.856C94.1592 26.856 95.9085 27.176 97.4445 27.816C99.0232 28.4133 100.218 29.1387 101.029 29.992C101.839 30.8453 102.522 31.6987 103.077 32.552C103.631 33.4053 103.994 34.1307 104.165 34.728L104.357 35.624L97.5085 36.712C97.2952 35.9013 96.9112 34.984 96.3565 33.96C95.8018 32.936 95.1405 31.9333 94.3725 30.952C93.6045 29.9707 92.7085 29.224 91.6845 28.712C90.6605 28.2 89.6792 28.0933 88.7405 28.392C87.5032 28.776 86.6072 29.7787 86.0525 31.4C85.4978 33.0213 85.2632 34.8133 85.3485 36.776C85.4765 38.696 85.8178 40.4667 86.3725 42.088C87.6952 45.8 89.4232 48.6373 91.5565 50.6C93.7325 52.52 95.9085 53.48 98.0845 53.48C100.261 53.48 102.159 52.584 103.781 50.792ZM136.217 56.04C136.345 56.1253 136.388 56.2747 136.345 56.488C136.302 56.6587 136.174 56.744 135.961 56.744H125.849C125.422 56.744 124.868 56.4667 124.185 55.912C122.35 54.5467 120.985 52.0933 120.089 48.552C119.193 45.0107 119.257 41.4693 120.281 37.928C119.769 38.696 119.172 39.7627 118.489 41.128C117.806 42.4507 117.358 43.4533 117.145 44.136V53.48C117.145 54.632 117.422 55.4213 117.977 55.848C118.19 55.976 118.254 56.168 118.169 56.424C118.126 56.6373 117.977 56.744 117.721 56.744H108.185C107.929 56.744 107.758 56.6373 107.673 56.424C107.588 56.168 107.652 55.976 107.865 55.848C108.42 55.4213 108.697 54.6747 108.697 53.608V21.928C108.697 21.8 108.697 21.7147 108.697 21.672C108.697 21.5867 108.654 21.5013 108.569 21.416C108.526 21.3307 108.441 21.288 108.313 21.288C107.929 21.3307 107.694 21.16 107.609 20.776C107.524 20.392 107.673 20.1147 108.057 19.944C111.129 18.4507 113.732 17.2987 115.865 16.488C116.334 16.36 116.654 16.36 116.825 16.488C117.038 16.616 117.145 16.808 117.145 17.064V39.72C117.444 39.2507 118.02 38.44 118.873 37.288C119.769 36.0933 120.9 34.728 122.265 33.192C123.63 31.656 125.145 30.3333 126.809 29.224C128.473 28.072 129.966 27.496 131.289 27.496C134.02 27.496 135.022 29.0747 134.297 32.232C133.956 33.384 133.785 33.96 133.785 33.96C132.292 32.8933 130.329 32.6373 127.897 33.192C125.465 33.7467 123.801 34.856 122.905 36.52C122.265 37.8427 122.308 39.528 123.033 41.576C123.801 43.5813 124.953 45.544 126.489 47.464C128.068 49.384 129.732 51.1333 131.481 52.712C133.273 54.2907 134.852 55.4 136.217 56.04ZM158.391 42.728C159.714 43.5813 160.802 44.712 161.655 46.12C162.551 47.4853 162.786 49.0853 162.359 50.92C161.975 52.6267 160.716 54.12 158.583 55.4C156.492 56.6373 153.804 57.256 150.519 57.256C149.068 57.256 147.618 57.0427 146.167 56.616C144.716 56.1467 143.436 55.5493 142.327 54.824C141.218 54.0987 140.322 53.48 139.639 52.968C138.999 52.456 138.444 51.944 137.975 51.432C137.719 51.176 137.698 50.8987 137.911 50.6L141.815 45.544C141.858 45.4587 141.943 45.416 142.071 45.416C142.199 45.416 142.284 45.48 142.327 45.608C142.668 46.4613 143.095 47.3573 143.607 48.296C144.119 49.192 144.823 50.3227 145.719 51.688C146.615 53.0533 147.639 54.184 148.791 55.08C149.986 55.9333 151.18 56.36 152.375 56.36C153.783 56.36 154.743 55.9333 155.255 55.08C155.81 54.184 155.831 53.1387 155.319 51.944C154.85 50.7067 153.954 49.64 152.631 48.744C151.607 48.0187 149.922 46.8667 147.575 45.288C145.271 43.6667 143.714 42.6 142.903 42.088C141.538 41.1493 140.407 39.8053 139.511 38.056C138.615 36.3067 138.572 34.4293 139.383 32.424C140.151 30.632 141.431 29.2667 143.223 28.328C145.015 27.3467 146.807 26.856 148.599 26.856C150.562 26.856 152.375 27.0267 154.039 27.368C155.703 27.7093 157.004 28.136 157.943 28.648C158.882 29.1173 159.671 29.608 160.311 30.12C160.994 30.5893 161.442 30.9947 161.655 31.336L162.039 31.848C160.802 33.4693 159.756 34.5787 158.903 35.176C158.092 35.688 157.196 35.8587 156.215 35.688C155.234 35.5173 154.487 35.0267 153.975 34.216C152.396 31.6987 150.967 29.928 149.687 28.904C148.45 27.88 147.212 27.752 145.975 28.52C145.335 28.904 144.951 29.5227 144.823 30.376C144.695 31.1867 144.908 32.1253 145.463 33.192C146.018 34.216 146.914 35.1333 148.151 35.944C149.004 36.5413 150.732 37.6933 153.335 39.4C155.98 41.1067 157.666 42.216 158.391 42.728Z" fill="#3D3D3D"/>
<path d="M173.024 45.288C174.624 45.288 176 45.832 177.152 46.92C178.368 48.008 178.976 49.384 178.976 51.048C178.976 52.52 178.368 53.896 177.152 55.176C176 56.392 174.624 57 173.024 57C171.232 57 169.792 56.392 168.704 55.176C167.616 53.896 167.072 52.52 167.072 51.048C167.072 49.384 167.648 48.008 168.8 46.92C169.952 45.832 171.36 45.288 173.024 45.288Z" fill="#EA830B"/>
</svg>
